<?xml version="1.0" encoding="utf-8"?>
<!-- Generator: Adobe Illustrator 15.1.0, SVG Export Plug-In . SVG Version: 6.00 Build 0)  -->
<!DOCTYPE svg PUBLIC "-//W3C//DTD SVG 1.1//EN" "http://www.w3.org/Graphics/SVG/1.1/DTD/svg11.dtd">
<svg version="1.1" id="Layer_1" xmlns="http://www.w3.org/2000/svg" xmlns:xlink="http://www.w3.org/1999/xlink" x="0px" y="0px"
	 width="690px" height="218px" viewBox="310.5 264.5 690 218" enable-background="new 310.5 264.5 690 218" xml:space="preserve">
<g>
	<path fill="#462F26" d="M825.857,434.494c-30.133,0-46.443-18.824-46.443-59.466c0-40.834,19.741-55.778,46.098-55.778
		c31.135,0,37.854,21.085,39.067,35.611h-15.098c-1.221-10.202-6.407-22.473-23.624-22.473c-18.305,0-31.001,11.182-31.001,42.41
		c0,32.697,12.354,46.674,31.115,46.674c17.3,0,22.289-10.9,23.625-23.971h14.981C863.229,415.893,854.449,434.494,825.857,434.494z
		"/>
	<polygon fill="#462F26" points="761.32,431.844 710.267,342.875 710.267,431.844 696.092,431.844 696.092,321.439 715.106,321.439 
		761.091,401.535 761.091,321.439 775.034,321.439 775.034,431.844 	"/>
	<polygon fill="#462F26" points="619.109,431.844 619.109,321.439 690.906,321.439 690.906,334.462 633.86,334.462 633.86,367.191 
		688.601,367.191 688.601,380.56 633.86,380.56 633.86,418.821 690.906,418.821 690.906,431.844 	"/>
	<path fill="#462F26" d="M493.147,434.494c-32.125,0-41.488-17.171-41.949-35.38h15.327c0.461,14.981,7.674,22.588,27.197,22.588
		c13.188,0,22.474-6.887,22.474-19.591c0-12.988-12.363-16.309-26.161-19.478c-17.791-4.085-38.491-8.848-38.491-33.651
		c0-20.943,18.616-29.733,37.455-29.733c32.058,0,37.223,17.753,37.914,28.35h-15.096c-0.576-5.641-5.223-15.558-22.934-15.558
		c-11.115,0-21.782,5.375-21.782,15.904c0,14.975,14.399,17.151,29.618,20.859c16.955,4.131,34.804,9.33,34.804,32.844
		C531.523,423.974,513.975,434.494,493.147,434.494z"/>
	<polygon fill="#462F26" points="376.75,431.844 376.75,321.439 448.548,321.439 448.548,334.462 391.501,334.462 391.501,367.191 
		446.243,367.191 446.243,380.56 391.501,380.56 391.501,418.821 448.548,418.821 448.548,431.844 	"/>
	<polygon fill="#462F26" points="869.189,431.844 869.189,321.439 940.984,321.439 940.984,334.462 883.939,334.462 
		883.939,367.191 938.681,367.191 938.681,380.56 883.939,380.56 883.939,418.821 940.984,418.821 940.984,431.844 	"/>
	<path fill="#462F26" d="M576.469,434.494c-32.125,0-41.487-17.171-41.949-35.38h15.327c0.461,14.981,7.677,22.588,27.198,22.588
		c13.188,0,22.473-6.887,22.473-19.591c0-12.988-12.363-16.309-26.161-19.478c-17.791-4.085-38.491-8.848-38.491-33.651
		c0-20.943,18.617-29.733,37.455-29.733c32.058,0,37.224,17.753,37.916,28.35h-15.099c-0.575-5.641-5.221-15.558-22.934-15.558
		c-11.115,0-21.781,5.375-21.781,15.904c0,14.975,14.4,17.151,29.618,20.859c16.956,4.131,34.803,9.33,34.803,32.844
		C614.844,423.974,597.296,434.494,576.469,434.494z"/>
	<g>
		<path fill="#462F26" d="M936.739,404.257c3.023,0,5.434,2.458,5.434,5.532c0,3.122-2.409,5.556-5.458,5.556
			c-3.021,0-5.481-2.435-5.481-5.556c0-3.074,2.46-5.532,5.481-5.532H936.739z M936.715,405.118c-2.434,0-4.426,2.09-4.426,4.672
			c0,2.63,1.992,4.695,4.45,4.695c2.459,0.023,4.426-2.065,4.426-4.671s-1.967-4.696-4.426-4.696H936.715z M935.683,413.01H934.7
			v-6.171c0.517-0.074,1.008-0.147,1.746-0.147c0.934,0,1.548,0.196,1.917,0.468c0.367,0.271,0.564,0.688,0.564,1.278
			c0,0.812-0.54,1.303-1.205,1.5v0.049c0.542,0.099,0.91,0.591,1.033,1.5c0.147,0.959,0.294,1.328,0.395,1.523h-1.033
			c-0.146-0.195-0.295-0.762-0.417-1.572c-0.148-0.787-0.542-1.082-1.328-1.082h-0.688L935.683,413.01L935.683,413.01z
			 M935.683,409.593h0.714c0.811,0,1.5-0.295,1.5-1.057c0-0.541-0.395-1.082-1.5-1.082c-0.318,0-0.541,0.024-0.714,0.049V409.593z"
			/>
	</g>
</g>
</svg>
